<svg width="203" height="171" xmlns="http://www.w3.org/2000/svg" viewBox="0 0 203 171"><path fill="#fff" d="M85.303 149.446v-13.611c-10.617-6.87-17.763-19.681-17.763-34.362V85.328c0-21.927 15.93-39.703 35.58-39.703s35.58 17.776 35.58 39.703v16.145c0 14.247-6.729 26.736-16.83 33.741-.117 3.67-.192 8.241-.192 13.94 20.945.59 43.039 13.432 56.096 20.845 15.38-17.733 24.71-43.157 24.71-68.474C202.484 45.701 157.23.448 101.407.448S.331 45.702.331 101.526c0 26.667 10.344 50.905 27.217 68.967 25.345-17.219 57.755-21.047 57.755-21.047z"/></svg>